<?xml version="1.0" encoding="utf-8"?>
<svg xmlns="http://www.w3.org/2000/svg" width="32" height="32" viewBox="0 0 32 32" fill="none">
<path d="M16.1169 26.7233H4.25009C3.83686 26.7233 3.5011 26.3875 3.5011 25.9743V5.76452C3.5011 5.49333 3.47528 5.37711 3.66898 5.19632L7.98214 1.23185C8.08545 1.14145 8.08543 1.12854 8.22748 1.12854H23.698C24.1112 1.12854 24.447 1.46429 24.447 1.87753V18.2375" stroke="#FF4C8B" stroke-miterlimit="10" stroke-linecap="round" stroke-linejoin="round"/>
<path d="M19.308 16.1358H7.89357C7.18852 16.1358 6.61438 15.5616 6.61438 14.8566V9.23402C6.61438 8.52897 7.18781 7.95483 7.89357 7.95483H19.308C20.0131 7.95483 20.5865 8.52826 20.5865 9.23402V14.8566C20.5865 15.5616 20.0131 16.1358 19.308 16.1358ZM7.89357 8.6862C7.5912 8.6862 7.34504 8.93165 7.34504 9.23402V14.8566C7.34504 15.159 7.5912 15.4044 7.89357 15.4044H19.308C19.6104 15.4044 19.8559 15.159 19.8559 14.8566V9.23402C19.8559 8.93165 19.6097 8.6862 19.308 8.6862H7.89357Z" fill="#FF4C8B"/>
<path d="M8.7182 1.1156V5.55787C8.7182 5.97111 8.47284 5.97111 8.13709 5.97111H3.50109" stroke="#FF4C8B" stroke-miterlimit="10" stroke-linecap="round" stroke-linejoin="round"/>
<circle cx="22.0793" cy="24.4637" r="6.42072" fill="white" stroke="#FF4C8B"/>
<path d="M17.9369 22.5317H18.5438L19.5782 24.5906L19.9225 25.3725H19.9432C19.9147 24.994 19.8678 24.5301 19.8678 24.1225V22.5317H20.4298V26.1949H19.8229L18.7885 24.1324L18.4442 23.3541H18.4235C18.452 23.7419 18.4989 24.1829 18.4989 24.5906V26.1949H17.9369V22.5317Z" fill="#FF4C8B"/>
<path d="M21.2778 22.5316H23.2905V23.078H21.869V24.1174H23.0792V24.6638H21.869V26.1941H21.2785V22.5309L21.2778 22.5316Z" fill="#FF4C8B"/>
<path d="M24.5469 23.0781H23.5858V22.5317H26.0993V23.0781H25.1381V26.1942H24.5476V23.0781H24.5469Z" fill="#FF4C8B"/>
<path d="M20.166 5.5401H12.5919V6.27076H20.166V5.5401Z" fill="#FF4C8B"/>
<path d="M11.4508 18.0196H6.7403V18.7503H11.4508V18.0196Z" fill="#FF4C8B"/>
<path d="M9.83367 19.7847H6.7403V20.5153H9.83367V19.7847Z" fill="#FF4C8B"/>
<path d="M19.6118 15.9188L15.563 11.3527L12.9889 13.6848L12.498 13.1434L15.346 10.5637C15.4178 10.4983 15.516 10.4655 15.6113 10.4698C15.7088 10.4748 15.7999 10.5189 15.8646 10.5922L20.1589 15.4343L19.6118 15.9195V15.9188Z" fill="#FF4C8B"/>
<path d="M7.60611 15.9486L7.11877 15.4036L11.2153 11.7418C11.3647 11.6087 11.5931 11.6201 11.7282 11.7667L13.9359 14.1728L13.3973 14.6672L11.4337 12.5272L7.60611 15.9486Z" fill="#FF4C8B"/>
<path d="M9.2041 10.9002C8.84695 10.9002 8.55597 10.6092 8.55597 10.2521C8.55597 9.89492 8.84695 9.60394 9.2041 9.60394C9.56124 9.60394 9.85223 9.89492 9.85223 10.2521C9.85223 10.6092 9.56196 10.9002 9.2041 10.9002Z" fill="#FF4C8B"/>
</svg>