<?xml version="1.0" encoding="utf-8"?>
<svg width="500" height="500" viewBox="0 0 500 500" fill="none" xmlns="http://www.w3.org/2000/svg" xmlns:bx="https://boxy-svg.com">
  <g clip-path="url(#clip0_7_268)">
    <rect width="500" height="500" style="fill: rgb(0, 4, 88);"/>
    <g style="opacity: 0;">
      <path d="M500 156.402C500 150.428 500 144.455 499.97 138.488C499.939 133.457 499.878 128.426 499.745 123.4C499.447 112.445 498.803 101.398 496.859 90.5632C494.884 79.5649 491.657 69.3261 486.565 59.3303C481.57 49.5169 475.038 40.5298 467.254 32.7459C459.464 24.9559 450.483 18.4298 440.664 13.4289C430.674 8.34291 420.441 5.11632 409.449 3.14148C398.615 1.19094 387.555 0.546836 376.6 0.24909C371.568 0.115408 366.543 0.0546439 361.512 0.0242617C355.539 -0.0121969 349.566 -0.00612046 343.599 -0.00612046H156.408C150.434 -0.00612046 144.461 -0.00612049 138.494 0.0242617C133.463 0.0546439 128.432 0.115408 123.406 0.24909C112.451 0.546836 101.392 1.19094 90.5572 3.14148C79.5649 5.11632 69.3322 8.34291 59.3425 13.4289C49.523 18.4237 40.542 24.9559 32.752 32.7459C24.962 40.5359 18.4359 49.5169 13.435 59.3303C8.34903 69.3261 5.12244 79.5588 3.1476 90.5632C1.20314 101.398 0.552956 112.445 0.261287 123.4C0.127605 128.432 0.066841 133.457 0.0364588 138.488C1.10919e-07 144.461 0 150.434 0 156.402V343.586C0 349.559 1.10919e-07 355.533 0.0364588 361.5C0.066841 366.531 0.127605 371.556 0.261287 376.587C0.559033 387.543 1.20314 398.59 3.1476 409.425C5.12244 420.423 8.34903 430.662 13.435 440.657C18.4298 450.471 24.962 459.458 32.752 467.242C40.542 475.032 49.523 481.558 59.3425 486.559C69.3322 491.645 79.5649 494.871 90.5572 496.846C101.392 498.797 112.445 499.441 123.406 499.739C128.438 499.872 133.463 499.933 138.494 499.964C144.467 500 150.441 499.994 156.408 499.994H343.592C349.566 499.994 355.539 499.994 361.506 499.964C366.537 499.933 371.562 499.872 376.594 499.739C387.549 499.441 398.602 498.797 409.443 496.846C420.435 494.871 430.668 491.645 440.657 486.559C450.477 481.564 459.458 475.032 467.248 467.242C475.038 459.452 481.564 450.471 486.559 440.657C491.645 430.662 494.872 420.429 496.852 409.425C498.797 398.59 499.447 387.543 499.739 376.587C499.872 371.556 499.933 366.531 499.964 361.5C500 355.527 499.994 349.553 499.994 343.586V156.402H500Z" stroke="white" stroke-miterlimit="10"/>
      <path d="M156.25 -0.00631714V499.994" stroke="white" stroke-miterlimit="10"/>
      <path d="M343.234 -0.00631714V499.994" stroke="white" stroke-miterlimit="10"/>
      <path d="M500 156.244H0" stroke="white" stroke-miterlimit="10"/>
      <path d="M500 343.222H0" stroke="white" stroke-miterlimit="10"/>
      <path d="M500 249.991H0" stroke="white" stroke-miterlimit="10"/>
      <path d="M249.48 499.994V-0.00631714" stroke="white" stroke-miterlimit="10"/>
      <path d="M467.193 499.994V-0.00631714" stroke="white" stroke-miterlimit="10"/>
      <path d="M32.2903 499.994V-0.00631714" stroke="white" stroke-miterlimit="10"/>
      <path d="M0 467.181H500" stroke="white" stroke-miterlimit="10"/>
      <path d="M0 32.2841H500" stroke="white" stroke-miterlimit="10"/>
      <path d="M250.045 343.684C301.764 343.684 343.69 301.758 343.69 250.04C343.69 198.321 301.764 156.395 250.045 156.395C198.327 156.395 156.401 198.321 156.401 250.04C156.401 301.758 198.327 343.684 250.045 343.684Z" stroke="white" stroke-miterlimit="10"/>
      <path d="M0 -0.00628662L500 499.994" stroke="white" stroke-miterlimit="10"/>
      <path d="M0 499.994L500 -0.00628662" stroke="white" stroke-miterlimit="10"/>
      <path d="M382.051 260.959C388.084 188.052 333.871 124.059 260.965 118.027C188.058 111.994 124.065 166.207 118.033 239.113C112 312.02 166.213 376.013 239.119 382.045C312.026 388.078 376.019 333.866 382.051 260.959Z" stroke="white" stroke-miterlimit="10"/>
      <path d="M250.045 467.23C369.996 467.23 467.236 369.99 467.236 250.04C467.236 130.089 369.996 32.8492 250.045 32.8492C130.095 32.8492 32.8552 130.089 32.8552 250.04C32.8552 369.99 130.095 467.23 250.045 467.23Z" stroke="white" stroke-miterlimit="10"/>
    </g>
  </g>
  <defs>
    <clipPath id="clip0_7_268">
      <rect width="500" height="500" fill="white"/>
    </clipPath>
    <bx:grid x="0" y="0" width="50" height="50"/>
  </defs>
  <ellipse style="fill: rgb(255, 255, 255);" cx="375" cy="125" rx="25" ry="25"/>
  <ellipse style="fill: rgb(255, 255, 255);" cx="375" cy="375" rx="25" ry="25"/>
  <ellipse style="stroke-width: 2px; stroke: rgb(255, 255, 255);" cx="380" cy="291.66" rx="10" ry="10"/>
  <ellipse style="stroke: rgb(255, 255, 255); stroke-width: 2px;" cx="380" cy="208.33" rx="10" ry="10"/>
  <ellipse style="fill: rgb(255, 255, 255);" cx="125" cy="125" rx="25" ry="25"/>
  <ellipse style="fill: rgb(255, 255, 255);" cx="125" cy="375" rx="25" ry="25"/>
  <ellipse style="stroke-width: 2px; stroke: rgb(255, 255, 255);" cx="125" cy="291.66" rx="10" ry="10"/>
  <ellipse style="stroke: rgb(255, 255, 255); stroke-width: 2px;" cx="125" cy="208.3" rx="10" ry="10"/>
  <ellipse style="fill: rgb(255, 255, 255);" cx="208.33" cy="125" rx="25" ry="25"/>
  <ellipse style="fill: rgb(255, 255, 255);" cx="291.66" cy="125" rx="25" ry="25"/>
  <ellipse style="stroke: rgb(255, 255, 255); stroke-width: 2px;" cx="208.3" cy="208.33" rx="10" ry="10"/>
  <ellipse style="fill: rgb(255, 255, 255);" cx="291.7" cy="208.33" rx="25" ry="25"/>
  <ellipse style="fill: rgb(255, 255, 255);" cx="208.3" cy="291.66" rx="25" ry="25"/>
  <ellipse style="stroke: rgb(255, 255, 255); stroke-width: 2px;" cx="291.33" cy="291.3" rx="10" ry="10"/>
  <ellipse style="fill: rgb(255, 255, 255);" cx="208.3" cy="375" rx="25" ry="25"/>
  <ellipse style="fill: rgb(255, 255, 255);" cx="291.66" cy="375" rx="25" ry="25"/>
  <path style="stroke: rgb(255, 255, 255); stroke-width: 10px;" d="M 125 125 L 375 125 L 125 375 L 375 375"/>
</svg>